<?xml version="1.0" encoding="utf-8"?>
<!-- Generator: Adobe Illustrator 23.0.1, SVG Export Plug-In . SVG Version: 6.00 Build 0)  -->
<svg version="1.1" id="Layer_1" xmlns="http://www.w3.org/2000/svg" xmlns:xlink="http://www.w3.org/1999/xlink" x="0px" y="0px"
	 viewBox="0 0 500 500" style="enable-background:new 0 0 500 500;" xml:space="preserve">
<style type="text/css">
	.st0{fill:#261300;}
	.st1{fill:#FF7C00;}
</style>
<g>
	<path class="st0" d="M20.83,27.08h458.33v445.83H20.83V27.08z"/>
	<path class="st1" d="M0,6.25v487.5h500V6.25H0z M20.83,27.08h458.33v445.83H20.83V27.08z"/>
	<path class="st1" d="M172.14,277.08l-16.46,62.5c-0.42,1.67-1.04,2.08-3.13,2.08h-30.63c-2.08,0-2.5-0.63-2.08-3.13l59.17-207.08
		c1.04-3.75,1.67-7.08,2.08-17.29c0-1.46,0.63-2.08,1.67-2.08h43.75c1.46,0,2.08,0.42,2.5,2.08l66.25,224.79
		c0.42,1.67,0,2.71-1.67,2.71h-34.58c-1.67,0-2.71-0.42-3.13-1.87l-17.29-62.71H172.14L172.14,277.08z M230.06,243.33
		c-5.83-23.13-19.58-73.54-24.79-97.92h-0.42c-4.38,24.38-15.42,65.63-24.17,97.92H230.06z M323.81,127.5
		c0-13.33,9.38-21.25,21.25-21.25c12.71,0,21.25,8.54,21.25,21.25c0,13.75-8.96,21.25-21.67,21.25
		C332.56,148.75,323.81,141.25,323.81,127.5L323.81,127.5z M326.31,174.79c0-1.67,0.63-2.5,2.5-2.5h32.71c1.67,0,2.5,0.63,2.5,2.5
		v164.38c0,1.67-0.42,2.5-2.5,2.5h-32.29c-2.08,0-2.71-1.04-2.71-2.71V174.79H326.31z"/>
</g>
</svg>
