<?xml version="1.0" encoding="utf-8"?>
<!-- Generator: Adobe Illustrator 23.0.1, SVG Export Plug-In . SVG Version: 6.00 Build 0)  -->
<svg version="1.1" id="Layer_1" xmlns="http://www.w3.org/2000/svg" xmlns:xlink="http://www.w3.org/1999/xlink" x="0px" y="0px"
	 viewBox="0 0 2500 2500" style="enable-background:new 0 0 2500 2500;" xml:space="preserve">
<style type="text/css">
	.st0{fill:#0ACF83;}
	.st1{fill:#A259FF;}
	.st2{fill:#F24E1E;}
	.st3{fill:#FF7262;}
	.st4{fill:#1ABCFE;}
</style>
<title>Figma.logo</title>
<desc>Created using Figma</desc>
<g>
	<path id="path0_fill" class="st0" d="M833.5,2500c230,0,416.7-186.7,416.7-416.7v-416.7H833.5c-230,0-416.7,186.7-416.7,416.7
		C416.8,2313.3,603.5,2500,833.5,2500z"/>
	<path id="path1_fill" class="st1" d="M416.8,1250c0-230,186.7-416.7,416.7-416.7h416.7v833.3H833.5
		C603.5,1666.7,416.8,1480,416.8,1250z"/>
	<path id="path1_fill_1_" class="st2" d="M416.8,416.7C416.8,186.7,603.5,0,833.5,0h416.7v833.3H833.5
		C603.5,833.3,416.8,646.7,416.8,416.7z"/>
	<path id="path2_fill" class="st3" d="M1250.2,0h416.7c230,0,416.7,186.7,416.7,416.7s-186.7,416.7-416.7,416.7h-416.7V0z"/>
	<path id="path3_fill" class="st4" d="M2083.5,1250c0,230-186.7,416.7-416.7,416.7S1250.2,1480,1250.2,1250s186.7-416.7,416.7-416.7
		S2083.5,1020,2083.5,1250z"/>
</g>
</svg>
