<?xml version="1.0" encoding="utf-8"?>
<!-- Generator: Adobe Illustrator 23.0.1, SVG Export Plug-In . SVG Version: 6.00 Build 0)  -->
<svg version="1.1" id="Layer_1" xmlns="http://www.w3.org/2000/svg" xmlns:xlink="http://www.w3.org/1999/xlink" x="0px" y="0px"
	 viewBox="0 0 2500 2500" style="enable-background:new 0 0 2500 2500;" xml:space="preserve">
<style type="text/css">
	.st0{fill:#FFC24A;}
	.st1{fill-rule:evenodd;clip-rule:evenodd;fill:#FFA712;}
	.st2{fill:#F4BD62;}
	.st3{fill-rule:evenodd;clip-rule:evenodd;fill:#FFA50E;}
	.st4{fill:#F6820C;}
	.st5{fill:#FDE068;}
	.st6{fill:#FCCA3F;}
	.st7{fill:#EEAB37;}
</style>
<path class="st0" d="M338.5,2015.5l15.1-21.2l715-1356.7l1.5-14.4l-315.2-592C728.5-18.3,654.2-5.8,645.5,49.7L338.5,2015.5z"/>
<g>
	<path id="a" class="st1" d="M347.4,1999.4l11.4-22.3l707.5-1342.5L752,40.2C725.8-8.9,659.5,3.6,650.9,58.5L347.4,1999.4z"/>
</g>
<g>
	<path d="M347.4,1999.4l11.4-22.3l707.5-1342.5L752,40.2C725.8-8.9,659.5,3.6,650.9,58.5L347.4,1999.4z"/>
</g>
<path class="st2" d="M1299.9,1071.1l234.7-240.3l-234.7-448.1c-22.3-42.4-84.5-42.5-106.5,0l-125.4,239.2v20.4L1299.9,1071.1
	L1299.9,1071.1z"/>
<g>
	<path id="c" class="st3" d="M1295.7,1061.1l228.2-233.7L1295.7,393c-21.7-41.2-74.3-45.6-95.7-4.2l-126.1,242.9l-3.8,12.4
		L1295.7,1061.1z"/>
</g>
<g>
	<path d="M1295.7,1061.1l228.2-233.7L1295.7,393c-21.7-41.2-74.3-45.6-95.7-4.2l-126.1,242.9l-3.8,12.4L1295.7,1061.1z"/>
</g>
<path class="st4" d="M338.5,2015.5l6.9-6.9l24.9-10.1l914.9-911.5l11.6-31.6l-228.2-434.9L338.5,2015.5z"/>
<path class="st5" d="M1329.2,2475.2l828-461.8L1920.7,557.2c-7.4-45.6-63.3-63.6-95.9-30.9L338.5,2015.5l823.3,459.7
	C1213.8,2504.2,1277.1,2504.2,1329.2,2475.2"/>
<path class="st6" d="M2149.8,2009.5L1915.1,564.4c-7.3-45.2-53.8-63.9-86.2-31.5L347.7,2012.7l814.2,455.1
	c51.6,28.8,114.5,28.8,166.2,0L2149.8,2009.5L2149.8,2009.5z"/>
<path class="st7" d="M1329.2,2461.6c-52,29-115.4,29-167.4,0l-816.6-453l-6.6,7l823.2,459.7c52,29,115.4,29.1,167.4,0l828-461.8
	l-2-12.5L1329.2,2461.6L1329.2,2461.6z"/>
</svg>
