<?xml version="1.0" encoding="utf-8"?>
<!-- Generator: Adobe Illustrator 23.0.1, SVG Export Plug-In . SVG Version: 6.00 Build 0)  -->
<svg version="1.1" id="Layer_1" xmlns="http://www.w3.org/2000/svg" xmlns:xlink="http://www.w3.org/1999/xlink" x="0px" y="0px"
	 viewBox="0 0 500 500" style="enable-background:new 0 0 500 500;" xml:space="preserve">
<style type="text/css">
	.st0{fill:#F05133;}
</style>
<path class="st0" d="M490.6,227.7L272.3,9.4c-12.6-12.6-33-12.6-45.5,0l-45.3,45.3l57.5,57.5c13.4-4.5,28.7-1.5,39.3,9.2
	c10.7,10.7,13.7,26.2,9.1,39.6l55.4,55.4c13.4-4.6,28.9-1.6,39.6,9.1c15,15,15,39.2,0,54.2c-15,15-39.2,15-54.2,0
	c-11.3-11.3-14-27.8-8.3-41.7l-51.7-51.7l0,136c3.6,1.8,7.1,4.2,10.1,7.2c15,15,15,39.2,0,54.2c-15,15-39.2,15-54.2,0
	c-15-15-15-39.2,0-54.2c3.7-3.7,8-6.5,12.5-8.4V184c-4.6-1.9-8.8-4.6-12.5-8.4c-11.3-11.3-14.1-28-8.3-41.9L159.1,77L9.4,226.7
	c-12.6,12.6-12.6,33,0,45.5l218.3,218.3c12.6,12.6,33,12.6,45.5,0l217.3-217.3C503.1,260.7,503.1,240.3,490.6,227.7"/>
</svg>
