<?xml version="1.0" encoding="utf-8"?>
<!-- Generator: Adobe Illustrator 23.0.1, SVG Export Plug-In . SVG Version: 6.00 Build 0)  -->
<svg version="1.1" id="Layer_1" xmlns="http://www.w3.org/2000/svg" xmlns:xlink="http://www.w3.org/1999/xlink" x="0px" y="0px"
	 viewBox="0 0 2500 2500" style="enable-background:new 0 0 2500 2500;" xml:space="preserve">
<style type="text/css">
	.st0{fill:#6762A6;}
	.st1{fill:#FFFFFF;}
</style>
<g>
	<path class="st0" d="M625.5,2489.3v-217.4c0-15.3-11.2-21.9-24.5-21.9c-26.5,0-59.7,6.6-89.8,19.9v219.4H450v-403.6h61.2v133.2
		c29.1-10.7,63.8-19.9,98.5-19.9c55.6,0,76.5,34.2,76.5,81.1v209.2L625.5,2489.3L625.5,2489.3z M800.5,2357.6
		c2,73,16.3,87.3,61.2,87.3c35.2,0,75-11.7,105.6-23.5l10.2,45.9c-32.7,14.8-72.5,29.1-119.9,29.1c-102.1,0-117.9-56.1-117.9-145.4
		c0-49,3.6-93.4,15.3-134.2c30.6-11.7,71.4-17.9,123-17.9c83.7,0,109.2,46.4,109.2,127.6v31.1L800.5,2357.6L800.5,2357.6z M878,2250
		c-18.3,0-47.4,0.5-71.4,5.1c-2.5,12.3-5.6,29.1-6.6,60.2h127.6C927.5,2272.9,919.9,2250,878,2250L878,2250z M1102,2269.9v219.4
		h-61.2v-247c51.5-28.1,106.1-36.7,141.9-39.3v51C1157.7,2256.1,1126,2259.2,1102,2269.9L1102,2269.9z M1344.4,2496.4
		c-91.3,0-132.7-44.9-132.7-147.5c0-108.7,54.6-150,132.7-150c91.3,0,132.7,44.9,132.7,147.4
		C1477,2455.1,1422.4,2496.4,1344.4,2496.4L1344.4,2496.4z M1344.4,2250c-46.9,0-73,27-73,99c0,78.6,21.9,95.9,73,95.9
		c46.9,0,73-26.5,73-98.5C1417.3,2267.8,1395.4,2250,1344.4,2250L1344.4,2250z M1772.4,2489.3h-72c-16.8-44.9-40.3-90.8-76.5-130.6
		h-32.1v130.6h-61.2v-403.6h61.2v231.6h28.6c31.1-32.2,55.1-71.9,71.9-111.2h68.9c-23.5,47.5-53.6,89.3-87.2,123.5
		C1714.3,2380.6,1745.9,2434.7,1772.4,2489.3L1772.4,2489.3z M1887.2,2496.4c-55.6,0-76.5-34.2-76.5-81.1v-209.2h60.7V2423
		c0,15.3,11.2,21.9,24.5,21.9c26.5,0,62.8-6.6,92.9-19.9v-218.9h61.2V2452C1977.5,2491.8,1921.9,2496.4,1887.2,2496.4z
		 M1860.2,1982.8H639.1c-104.5,0-189.1-84.7-189.1-189.1V189.1C450,84.6,534.7,0,639.1,0h1221.1c104.4,0,189.1,84.7,189.1,189.1
		v1604.6C2049.3,1898.2,1964.6,1982.8,1860.2,1982.8L1860.2,1982.8z"/>
	<path class="st1" d="M1452.2,1710V922.5c0,0,51.2-188.4-630.9,77.1c-1.3,3.4-1.3-728.2-1.3-728.2l222.9-1.4v468.7
		c0,0,624-245.8,624,186.4V1710H1452.2L1452.2,1710z M1579.2,553.8h-236.4c85.1-104,162.1-282.3,162.1-282.3h244.4
		C1749.4,271.5,1707.6,387.6,1579.2,553.8L1579.2,553.8z M824.1,1708.6v-448.4l224.2,224.2L824.1,1708.6L824.1,1708.6z"/>
</g>
</svg>
