<?xml version="1.0" encoding="utf-8"?>
<!-- Generator: Adobe Illustrator 23.0.1, SVG Export Plug-In . SVG Version: 6.00 Build 0)  -->
<svg version="1.1" id="Layer_1" xmlns="http://www.w3.org/2000/svg" xmlns:xlink="http://www.w3.org/1999/xlink" x="0px" y="0px"
	 viewBox="0 0 2409.4 2409.4" style="enable-background:new 0 0 2409.4 2409.4;" xml:space="preserve">
<style type="text/css">
	.st0{fill:#00758F;}
	.st1{fill:#F29111;}
	.st2{fill-rule:evenodd;clip-rule:evenodd;fill:#F29111;}
	.st3{fill-rule:evenodd;clip-rule:evenodd;fill:#00758F;}
</style>
<path class="st0" d="M579.3,1879h-93c-3.3-157.3-12.3-305.3-27.1-443.9h-0.8L316.8,1879H246l-140.7-443.9h-0.8
	c-10.4,133.1-17,281-19.7,443.9H0c5.5-198,19.2-383.7,41.1-556.9h115.2l134.1,409.2h0.8l135-409.2h110.3
	C560.6,1525.1,574.9,1710.7,579.3,1879 M982.6,1468.2c-37.9,206-87.8,355.6-149.8,449c-48.3,71.9-101.2,107.9-158.8,107.9
	c-15.4,0-34.3-4.6-56.8-13.8v-49.6c11,1.6,23.9,2.5,38.7,2.5c26.9,0,48.5-7.4,65-22.3c19.7-18.1,29.6-38.5,29.6-61
	c0-15.4-7.7-47-23-94.9l-102-317.7h91.3l73.2,237.6c16.5,53.9,23.3,91.6,20.6,113.1c40.1-107.3,68-224.2,83.9-350.7H982.6"/>
<g>
	<path class="st1" d="M1389.8,1724.7c0,47.2-17.3,86-51.8,116.3c-34.5,30.2-80.9,45.3-139,45.3c-54.3,0-107-17.4-158-52l23.9-47.8
		c43.9,22,83.6,33,119.3,33c33.5,0,59.6-7.5,78.6-22.2c18.9-14.9,30.2-35.6,30.2-61.8c0-33.1-23-61.3-65.2-85
		c-39-21.4-116.8-66.2-116.8-66.2c-42.2-30.9-63.3-64-63.3-118.5c0-45.1,15.8-81.6,47.3-109.3c31.6-27.8,72.3-41.7,122.2-41.7
		c51.6,0,98.5,13.8,140.7,41.3l-21.5,47.8c-36.1-15.4-71.8-23.1-106.9-23.1c-28.5,0-50.5,6.9-65.8,20.7
		c-15.4,13.7-24.9,31.3-24.9,52.8c0,33,23.5,61.6,66.9,85.8c39.5,21.4,119.2,67.1,119.2,67.1
		C1368.2,1637.8,1389.8,1670.6,1389.8,1724.7"/>
	<path class="st2" d="M1556,1767.6c-22.5-36.3-33.8-94.6-33.8-174.9c0-140.2,42.5-210.4,127.5-210.4c44.4,0,77.1,16.8,97.9,50.3
		c22.5,36.3,33.7,94.1,33.7,173.3c0,141.4-42.5,212.1-127.5,212.1C1609.5,1818,1576.8,1801.2,1556,1767.6 M1886.8,1892.5
		l-102.1-50.5c9.1-7.5,17.7-15.5,25.5-24.9c43.3-51.1,65-126.7,65-226.8c0-184.2-72.1-276.4-216.4-276.4
		c-70.8,0-125.9,23.4-165.4,70.2c-43.4,51.2-65,126.5-65,226.1c0,97.9,19.2,169.7,57.6,215.3c35,41.2,87.9,61.9,158.7,61.9
		c26.4,0,50.7-3.3,72.7-9.8l133,77.6L1886.8,1892.5"/>
	<path class="st1" d="M2220,1879h-264.1v-556.9h88.9v488.4H2220V1879z M2283.4,1879h14.7v-56.7h19.3v-11.6h-54v11.6h20V1879z
		 M2395.5,1879h13.9v-68.2h-20.9l-17,46.5l-18.5-46.5h-20.1v68.2h13.1v-51.9h0.7l19.4,51.9h10l19.3-51.9V1879z"/>
</g>
<g>
	<path class="st3" d="M2331.6,1135.6c-53.7-1.3-95.3,4-130.2,18.8c-10.1,4-26.2,4-27.5,16.8c5.4,5.4,6.1,14.1,10.8,21.5
		c8,13.5,22.1,31.6,34.9,41c14.1,10.8,28.2,21.5,43,30.9c26.2,16.2,55.7,25.6,81.2,41.8c14.8,9.4,29.5,21.5,44.3,31.6
		c7.4,5.4,12,14.1,21.4,17.5v-2c-4.7-6-6-14.8-10.7-21.6c-6.7-6.7-13.4-12.8-20.2-19.5c-19.5-26.2-43.7-49.1-69.8-67.9
		c-21.5-14.8-68.5-35-77.2-59.9l-1.4-1.4c14.8-1.4,32.2-6.8,46.3-10.8c22.8-6,43.6-4.7,67.1-10.7c10.8-2.7,21.5-6.1,32.3-9.4v-6.1
		c-12.1-12.1-20.8-28.3-33.6-39.7c-34.2-29.6-71.8-58.5-110.7-82.8c-20.8-13.5-47.7-22.2-69.8-33.6c-8-4-21.4-6-26.1-12.8
		c-12.1-14.8-18.8-34.3-27.5-51.8c-19.4-37-38.3-78-55-117.1c-12.1-26.2-19.5-52.5-34.2-76.7c-69.2-114.4-144.3-183.7-259.7-251.7
		c-24.8-14.2-54.4-20.2-85.9-27.6c-16.8-0.7-33.6-2-50.3-2.7c-10.8-4.7-21.5-17.5-30.9-23.6c-38.3-24.2-136.9-76.7-165.1-7.4
		c-18.1,43.8,26.8,86.8,42.3,109c11.4,15.5,26.2,33,34.2,50.5c4.7,11.4,6,23.6,10.8,35.7c10.7,29.6,20.8,62.6,34.9,90.2
		c7.4,14.1,15.4,29,24.8,41.7c5.4,7.4,14.8,10.8,16.8,22.9c-9.4,13.4-10.1,33.6-15.5,50.5c-24.1,76-14.8,170.2,19.5,226.1
		c10.7,16.8,36.3,53.8,70.5,39.7c30.2-12.1,23.5-50.4,32.2-84.1c2-8.1,0.7-13.5,4.7-18.8v1.4c9.4,18.8,18.8,36.9,27.5,55.8
		c20.8,32.9,57,67.3,87.3,90.1c16.1,12.2,28.8,33,49,40.4v-2h-1.3c-4-6-10.1-8.8-15.4-13.4c-12.1-12.1-25.5-26.9-34.9-40.4
		c-28.2-37.7-53-79.4-75.1-122.5c-10.8-20.9-20.1-43.8-28.9-64.6c-4-8-4-20.2-10.7-24.2c-10.1,14.8-24.8,27.6-32.2,45.7
		c-12.8,29-14.1,64.6-18.8,101.7c-2.7,0.7-1.3,0-2.7,1.3c-21.4-5.4-28.8-27.6-36.9-46.4c-20.1-47.8-23.5-124.5-6-179.7
		c4.7-14.1,24.9-58.5,16.8-72c-4.1-12.8-17.5-20.2-24.8-30.3c-8.7-12.8-18.2-28.9-24.1-43.1c-16.1-37.7-24.2-79.4-41.6-117.1
		c-8.1-17.5-22.2-35.7-33.6-51.8c-12.8-18.2-26.9-31-36.9-52.5c-3.3-7.4-8-19.5-2.7-27.6c1.3-5.4,4-7.4,9.4-8.8
		c8.7-7.4,33.5,2,42.2,6c24.8,10.1,45.7,19.5,66.4,33.6c9.4,6.7,19.5,19.5,31.5,22.9h14.1c21.5,4.7,45.6,1.3,65.8,7.4
		c35.5,11.4,67.8,28.3,96.6,46.4c87.9,55.9,160.4,135.3,209.3,230.1c8.1,15.5,11.5,29.6,18.8,45.7c14.1,33,31.6,66.7,45.6,99
		c14.1,31.6,27.5,63.9,47.7,90.2c10,14.1,50.3,21.5,68.4,28.9c13.4,6,34.2,11.4,46.3,18.8c22.8,14.1,45.6,30.3,67.1,45.8
		C2296,1105.3,2329.6,1122.1,2331.6,1135.6"/>
	<path class="st3" d="M1647,550.7c-9.3-0.1-18.5,1.1-27.5,3.4v1.3h1.3c5.4,10.7,14.8,18.2,21.5,27.6c5.4,10.8,10.1,21.5,15.5,32.3
		c0.7-0.7,1.3-1.4,1.3-1.4c9.5-6.7,14.2-17.5,14.2-33.6c-4.1-4.7-4.7-9.4-8.1-14.1C1661.1,559.5,1652.4,556.1,1647,550.7"/>
</g>
</svg>
