<?xml version="1.0" encoding="utf-8"?>
<!-- Generator: Adobe Illustrator 23.0.1, SVG Export Plug-In . SVG Version: 6.00 Build 0)  -->
<svg version="1.1" id="Layer_1" xmlns="http://www.w3.org/2000/svg" xmlns:xlink="http://www.w3.org/1999/xlink" x="0px" y="0px"
	 viewBox="0 0 500 500" style="enable-background:new 0 0 500 500;" xml:space="preserve">
<style type="text/css">
	.st0{fill:#001D26;}
	.st1{fill:#00C7FF;}
</style>
<g>
	<path class="st0" d="M20.83,27.08h458.33v445.83H20.83V27.08z"/>
	<path class="st1" d="M0,6.25v487.5h500V6.25H0z M20.83,27.08h458.33v445.83H20.83V27.08z M120.83,120.42c0-1.46,2.92-2.5,4.58-2.5
		c13.33-0.63,33.12-1.04,53.75-1.04c57.71,0,80.21,31.67,80.21,72.29c0,52.92-38.33,75.63-85.42,75.63
		c-7.92,0-10.62-0.42-16.25-0.42v80c0,1.67-0.63,2.5-2.5,2.5h-31.87c-1.67,0-2.5-0.63-2.5-2.5V120.42L120.83,120.42z M157.92,231.04
		c4.79,0.42,8.54,0.42,16.88,0.42c24.37,0,47.29-8.54,47.29-41.67c0-26.46-16.46-39.79-44.17-39.79c-8.33,0-16.25,0.42-20,0.63
		L157.92,231.04L157.92,231.04z M337.08,206.25c-16.46,0-22.08,8.33-22.08,15.21c0,7.5,3.75,12.71,25.83,24.17
		c32.71,15.83,42.92,31.04,42.92,53.33c0,33.33-25.42,51.25-59.79,51.25c-18.13,0-33.75-3.75-42.71-8.96
		c-1.46-0.63-1.67-1.67-1.67-3.33v-30.63c0-2.08,1.04-2.71,2.5-1.67c13.13,8.54,28.13,12.29,41.88,12.29
		c16.46,0,23.33-6.88,23.33-16.25c0-7.5-4.79-14.17-25.83-25c-29.58-14.17-41.88-28.54-41.88-52.5c0-26.88,21.04-49.17,57.5-49.17
		c17.92,0,30.42,2.71,37.29,5.83c1.67,1.04,2.08,2.71,2.08,4.17v28.54c0,1.67-1.04,2.71-3.13,2.08
		C364.17,209.79,350.63,206.25,337.08,206.25L337.08,206.25z"/>
</g>
</svg>
