<?xml version="1.0" encoding="utf-8"?>
<!-- Generator: Adobe Illustrator 23.0.1, SVG Export Plug-In . SVG Version: 6.00 Build 0)  -->
<svg version="1.1" id="Layer_1" xmlns="http://www.w3.org/2000/svg" xmlns:xlink="http://www.w3.org/1999/xlink" x="0px" y="0px"
	 viewBox="0 0 2500 2246" style="enable-background:new 0 0 2500 2246;" xml:space="preserve">
<style type="text/css">
	.st0{fill:#53C1DE;}
</style>
<path class="st0" d="M2056.3,732.8L2056.3,732.8c-26.6-9.1-53.4-17.6-80.3-25.3c4.5-18.2,8.6-36.5,12.4-54.8
	c60.8-295.2,21.1-533.1-114.7-611.3c-130.2-75.1-343.1,3.2-558.2,190.3c-21.2,18.5-41.9,37.5-62.1,57c-13.5-13-27.3-25.7-41.4-38.2
	C986.5,50.4,760.6-34,625,44.6c-130.1,75.3-168.6,298.9-113.8,578.7c5.4,27.7,11.6,55.3,18.4,82.7c-32,9.1-62.8,18.8-92.4,29
	C173,827.1,4.2,971.5,4.2,1121.2c0,154.7,181.1,309.8,456.4,403.9c22.3,7.6,44.8,14.6,67.5,21.1c-7.4,29.5-13.9,59.2-19.6,89.1
	c-52.2,274.9-11.4,493.2,118.3,568c134,77.3,358.9-2.2,577.9-193.6c17.3-15.1,34.7-31.2,52.1-48c21.9,21.1,44.4,41.7,67.5,61.6
	c212.1,182.5,421.6,256.2,551.2,181.2c133.9-77.5,177.4-312,120.9-597.3c-4.3-21.8-9.3-44-15-66.7c15.8-4.7,31.3-9.5,46.4-14.5
	c286.1-94.8,472.3-248,472.3-404.8C2500,970.9,2325.8,825.6,2056.3,732.8z M1385.4,312.1c184.3-160.4,356.5-223.7,434.9-178.4l0,0
	c83.6,48.2,116.1,242.6,63.6,497.5c-3.4,16.6-7.2,33.1-11.2,49.6c-103.5-23.9-216-41.7-333.7-52.7c-68.6-97.7-139.6-186.4-211-263.3
	C1346.7,346.7,1365.8,329.2,1385.4,312.1z M741.1,1249.1c22.6,43.6,46.2,86.7,70.8,129.1c25.1,43.3,51.2,86.1,78.4,128.2
	c-81.7-9.1-158.8-21.5-230-37C682.3,1398.3,709.4,1324.4,741.1,1249.1z M741,998.4c-31-73.6-57.6-146-79.3-216
	c71.2-15.9,147.1-29,226.3-38.8c-26.5,41.3-52,83.2-76.5,125.7C787,911.8,763.5,954.8,741,998.4z M797.7,1123.8
	c32.9-68.4,68.3-135.5,106.2-201.2v0c37.9-65.7,78.3-130,121-192.7c74.2-5.6,150.3-8.5,227.3-8.5c77.3,0,153.5,3,227.7,8.6
	c42.3,62.6,82.4,126.6,120.3,192c38,65.6,73.9,132.4,107.6,200.3c-33.3,68.6-69.1,136-107.2,202l0,0
	c-37.8,65.7-77.7,130.1-119.7,193.2c-74,5.3-150.6,8-228.6,8c-77.7,0-153.2-2.4-226-7.1c-43.1-62.9-83.8-127.5-122-193.5
	C866.1,1259.2,830.6,1192.1,797.7,1123.8z M1692.8,1377.5c25.1-43.5,49.2-87.6,72.4-132.2h0c33.4,76,61.5,149.6,83.8,219.6
	c-72.4,16.5-150.5,29.8-232.8,39.7C1642.5,1462.7,1668.1,1420.4,1692.8,1377.5z M1764.1,998.5c-23.1-43.8-47-87.1-71.8-129.9v0
	c-24.4-42.1-49.7-83.8-75.9-124.8c79.6,10.1,155.9,23.4,227.6,39.8C1822.5,852.5,1795.7,924.6,1764.1,998.5z M1253.3,441
	c49.2,53.3,98.4,112.8,146.9,177.3c-98.3-4.6-196.7-4.7-295-0.1C1153.7,554.3,1203.4,494.9,1253.3,441z M678.4,136.8
	c83.5-48.3,268.1,20.6,462.7,193.4c12.4,11,24.9,22.6,37.4,34.6c-72.5,77.9-144.2,166.5-212.6,263.1
	c-117.4,10.9-229.7,28.4-333,51.8c-6.4-25.5-12.1-51.1-17.2-76.9v0C568.8,363,600,182.2,678.4,136.8z M556.7,1443.5
	c-20.7-5.9-41.2-12.4-61.6-19.3c-121.7-41.6-222.2-95.7-291.1-154.6c-61.9-53-93.2-105.6-93.2-148.4c0-90.9,135.5-206.8,361.5-285.6
	c28.4-9.8,57-18.9,85.9-27c31.2,101.6,72.2,207.8,121.6,315.2C629.8,1232.8,588.2,1340.7,556.7,1443.5z M1134.5,1929.5
	c-96.8,84.7-193.9,144.7-279.4,174.9l0,0c-76.8,27.1-138,27.9-175,6.6c-78.7-45.4-111.4-220.7-66.8-455.8
	c5.3-27.8,11.4-55.4,18.2-82.9c102.2,22.6,215.4,38.9,336.3,48.7c69,97.2,141.4,186.5,214.2,264.7
	C1166.5,1900.7,1150.7,1915.3,1134.5,1929.5z M1256.2,1809c-50.5-54.5-100.9-114.8-150.2-179.7c47.8,1.9,96.5,2.8,146,2.8
	c50.9,0,101.2-1.1,150.7-3.3C1354.2,1694.8,1305.1,1755.2,1256.2,1809z M1903.7,1957.3c-14.9,80.1-44.8,133.5-81.7,154.9
	c-78.7,45.5-246.9-13.7-428.3-169.7c-20.8-17.9-41.8-37-62.8-57.2c70.3-76.9,140.6-166.3,209.2-265.6
	c120.7-10.7,234.6-28.2,338-52.1c5.1,20.5,9.6,40.7,13.5,60.4v0C1916.7,1754.1,1920.2,1868.2,1903.7,1957.3z M1994.2,1424.8
	L1994.2,1424.8c-13.7,4.5-27.7,8.9-41.9,13.1c-31.6-100-74.2-206.3-126.4-316.2c49.8-107.3,90.8-212.2,121.5-311.6
	c25.5,7.4,50.3,15.2,74.2,23.4c231,79.5,371.8,197.1,371.8,287.6C2393.4,1217.7,2241.2,1343,1994.2,1424.8z"/>
<path class="st0" d="M1252.1,898.3c123.1,0,222.9,99.8,222.9,222.9c0,123.1-99.8,222.9-222.9,222.9c-123.1,0-222.9-99.8-222.9-222.9
	C1029.2,998.1,1129,898.3,1252.1,898.3"/>
</svg>
