<svg xmlns="http://www.w3.org/2000/svg" viewBox="0 0 18.68 18.71"><defs><style>.cls-1{fill:#e8212a;}.cls-2{fill:#f48fa8;}.cls-3{fill:#f48ea7;}.cls-4{fill:#f48ea8;}.cls-5{fill:#b12225;}.cls-6{fill:#b42826;}.cls-7{fill:#ea433c;}.cls-8{fill:#ea413b;}.cls-9{fill:#ea3e38;}.cls-10{fill:#ea3e39;}.cls-11{fill:#3a2d3b;}.cls-12{fill:#392e3c;}.cls-13{fill:#f1655b;}.cls-14{fill:#f1645a;}</style></defs><title>Asset 31</title><g id="Layer_2" data-name="Layer 2"><g id="Layer_1-2" data-name="Layer 1"><path class="cls-1" d="M14.42,10.94a3.21,3.21,0,0,0,3.78-2.1c.4.19.2.5.12.75a3.61,3.61,0,0,1-4.81,2.1,3.77,3.77,0,0,1-1.23-.83c-.1-.11-.19-.27-.44-.24a1.44,1.44,0,0,0,1.09,1.19,9.2,9.2,0,0,0,1.88.37,1.06,1.06,0,0,1,.73.3,2.59,2.59,0,0,1,1.88,2.61.21.21,0,0,1-.26,0,.27.27,0,0,1-.11-.15c-.4-1.46-1.52-1.87-2.85-1.94a7.47,7.47,0,0,1-1.42-.19c-.41-.12-.62-.07-.59.41a.33.33,0,0,1-.12.21,6.18,6.18,0,0,1-.93,2.48,1.17,1.17,0,0,0,.09,1.49,1.14,1.14,0,0,0,1.66.11l.42-.36c.24.33,0,.55-.2.75a1.54,1.54,0,0,1-1.73.29,1.72,1.72,0,0,1-.94-1.69,12.24,12.24,0,0,1,.35-1.45A4.67,4.67,0,0,0,11,13.29a1.68,1.68,0,0,0-3.36,0,4.47,4.47,0,0,0,.21,1.78,10.55,10.55,0,0,1,.35,1.45,1.7,1.7,0,0,1-1,1.75,1.57,1.57,0,0,1-1.75-.45c-.15-.17-.45-.38-.07-.63.13.12.27.25.41.36a1.09,1.09,0,0,0,1.43.09,1.08,1.08,0,0,0,.44-1.41,9.15,9.15,0,0,0-.47-.94,4.68,4.68,0,0,1-.58-1.82c-.28-.69-.28-.7-1.08-.55C5,13,4.44,13,3.9,13.08a2.41,2.41,0,0,0-2.24,1.77.54.54,0,0,1-.16.26.21.21,0,0,1-.26,0,2.56,2.56,0,0,1,1.88-2.61c.42-.39,1-.31,1.46-.4a4.56,4.56,0,0,0,1.54-.45,1.31,1.31,0,0,0,.71-1c-.36.05-.49.31-.68.48A3.65,3.65,0,0,1,.36,9.65c-.09-.27-.3-.58.1-.81a3.22,3.22,0,0,0,3.78,2.1c.25-.3.71-.21,1-.51A2.52,2.52,0,0,1,2.94,7.66C2.93,5.94,4,4.87,5.26,4c.09,0,.16.1.11.22a5.7,5.7,0,0,1-1,1.33A2.64,2.64,0,0,0,4,8.5a1.48,1.48,0,0,0,1.4,1,2.39,2.39,0,0,0,1.69-1c.09-.1.06-.18,0-.26C6.29,7.58,6.45,6.79,6.59,6c.43-.43.26-.77-.09-1.17a2.5,2.5,0,0,1-.37-1.59A3.54,3.54,0,0,1,8.69.1a2.51,2.51,0,0,1,2.37.53,3.75,3.75,0,0,1,.82,3.64c-.13.64-.3,1.2.19,1.73.15.81.29,1.61-.49,2.22-.12.09,0,.18.05.25a2.12,2.12,0,0,0,1.83,1,1.67,1.67,0,0,0,1.39-1.4A2.54,2.54,0,0,0,14.3,5.5a5.32,5.32,0,0,1-1-1.27c-.11-.15,0-.23.1-.28,1.43,1,2.5,2.29,2.29,4.22a2.53,2.53,0,0,1-2.27,2.27C13.71,10.73,14.16,10.64,14.42,10.94Z"/><path class="cls-2" d="M5.36,17.17c0,.75,1,1.29,1.82.93A1.55,1.55,0,0,0,8,16.33c-.15-.64-.33-1.28-.5-1.92a3.3,3.3,0,0,1-.06-1.17,1.78,1.78,0,0,1,1.85-1.72,1.78,1.78,0,0,1,1.87,1.7,5.33,5.33,0,0,1-.26,2,9.3,9.3,0,0,0-.32,1.26,1.53,1.53,0,0,0,.85,1.59,1.4,1.4,0,0,0,1.59-.32c.16-.17.33-.33.26-.6.11-.16.07-.39.3-.56a1.43,1.43,0,0,1-.26,1.51,1.86,1.86,0,0,1-1.82.54,2.22,2.22,0,0,1-1.65-2.45c.12-.78.39-1.53.53-2.3.08-.45.18-1-.28-1.25a1.6,1.6,0,0,0-1.56,0,.8.8,0,0,0-.37.86,12.56,12.56,0,0,0,.45,2A2.48,2.48,0,0,1,8,18.17a1.92,1.92,0,0,1-1.84.47,1.51,1.51,0,0,1-1.15-2A.82.82,0,0,1,5.36,17.17Z"/><path class="cls-2" d="M5.22,4,4.13,5.1a3.61,3.61,0,0,0-1,3.12c.19,1.29,1,1.91,2.59,2.08a2.39,2.39,0,0,1-1.45.64c-.19-.42-.62-.59-.92-.9A3.24,3.24,0,0,1,2.74,6.1,5.54,5.54,0,0,1,4.12,4.36c.19-.17.37-.34.54-.52s.4-.45.28-.77-.43-.33-.73-.34c-.12,0-.32.13-.34-.12s.09-.17.19-.22.32,0,.48,0c.4,0,.84,0,1,.42A1,1,0,0,1,5.22,4Z"/><path class="cls-2" d="M14.42,10.94a2.47,2.47,0,0,1-1.48-.65C15.32,10.1,16.32,8,15.13,5.9A12.28,12.28,0,0,0,13.43,4a1,1,0,0,1-.3-1.2c.15-.43.59-.42,1-.42.16,0,.32.09.48,0s.19.11.19.22-.17.13-.28.13c-.31,0-.66,0-.79.33s.13.63.37.86a16.92,16.92,0,0,1,1.26,1.28,3.48,3.48,0,0,1-.52,5.29C14.68,10.63,14.46,10.7,14.42,10.94Z"/><path class="cls-3" d="M15.54,12.48c-.78-.14-1.55-.24-2.32-.4a1.92,1.92,0,0,1-1.51-1.17c-.08-.2-.26-.46,0-.61s.37.13.5.27a3.88,3.88,0,0,0,2.24,1.23,3.49,3.49,0,0,0,3.78-2.38c.05-.19.16-.39,0-.58.05-.32.09-.64.14-1a3.09,3.09,0,0,1-1.26,4A11.88,11.88,0,0,1,15.54,12.48Z"/><path class="cls-3" d="M.46,8.84c-.23.32,0,.61.09.88A3.49,3.49,0,0,0,6.06,11c.11-.09.2-.21.31-.3s.34-.51.58-.35,0,.54-.08.78a1.93,1.93,0,0,1-1.43,1c-.77.16-1.55.27-2.32.4A4.63,4.63,0,0,1,.77,11.22,3.13,3.13,0,0,1,.3,7.81Z"/><path class="cls-4" d="M1.47,15.09A2.4,2.4,0,0,1,3.62,13a12,12,0,0,0,2.79-.46c.21-.09.25,0,.24.21l-.06.74a29.84,29.84,0,0,1-3.27.28A1.34,1.34,0,0,0,2,14.79a1.91,1.91,0,0,0,.59,2c.11.09.4.11.27.33s-.29,0-.43-.08A1.77,1.77,0,0,1,1.47,15.09Z"/><path class="cls-2" d="M12.07,13.45l-.08-1A11.58,11.58,0,0,0,15,13a2.39,2.39,0,0,1,2.16,2.13,1.65,1.65,0,0,1-1.13,2l-.38,0a2.11,2.11,0,0,0,1-2,1.42,1.42,0,0,0-1.36-1.41A32.08,32.08,0,0,1,12.07,13.45Z"/><path class="cls-5" d="M12.07,6a3.25,3.25,0,0,0-.29-.23c-.4-.24-.38-.51-.23-.95A4.07,4.07,0,0,0,11,.74s0-.07,0-.11A4.24,4.24,0,0,1,12.07,6Z"/><path class="cls-6" d="M6.13,3.25a3.72,3.72,0,0,0,.88,2c.36.38-.25.5-.42.74A3.92,3.92,0,0,1,6.13,3.25Z"/><path class="cls-7" d="M14.6,2.39c-.11.21-.29.1-.44.1-.91,0-1.21.45-.82,1.29l.09.22-.11.23a2,2,0,0,1-.2-.3c-.21-.46-.4-1,0-1.38A1.14,1.14,0,0,1,14.6,2.39Z"/><path class="cls-8" d="M5.22,4a2.81,2.81,0,0,0,.22-.5.73.73,0,0,0-.7-1c-.23,0-.48.16-.68-.09a1.12,1.12,0,0,1,1.5.2c.41.54.16,1.09-.19,1.58Z"/><path class="cls-9" d="M16.06,17.07a2.12,2.12,0,0,0,1.13-2h.23C17.45,16.21,16.89,17,16.06,17.07Z"/><path class="cls-10" d="M1.47,15.09a2.42,2.42,0,0,0,1,2,1.78,1.78,0,0,1-1.22-2Z"/><path class="cls-11" d="M7,6.92c0-.42.12-.8.61-.8s.6.41.6.8-.14.74-.58.75S7,7.3,7,6.92Z"/><path class="cls-12" d="M11.7,6.82c0,.45-.13.83-.59.85s-.62-.38-.61-.77.12-.78.61-.78S11.66,6.48,11.7,6.82Z"/><path class="cls-13" d="M9.86,1C9.7,1,9.37,1,9.37.7S9.7.39,10,.39s.56,0,.54.33S10.19,1,9.86,1Z"/><path class="cls-13" d="M10.92,1.14a.26.26,0,0,1-.26.22c-.13,0-.27,0-.25-.19S10.57,1,10.7,1A.21.21,0,0,1,10.92,1.14Z"/><path class="cls-14" d="M8.58.73C8.36,1,8.2.88,7.93.79A.47.47,0,0,1,8.58.73Z"/></g></g></svg>