<?xml version="1.0" encoding="utf-8"?>
<!-- Generator: Adobe Illustrator 23.0.1, SVG Export Plug-In . SVG Version: 6.00 Build 0)  -->
<svg version="1.1" id="Layer_1" xmlns="http://www.w3.org/2000/svg" xmlns:xlink="http://www.w3.org/1999/xlink" x="0px" y="0px"
	 viewBox="0 0 141.7 141.7" style="enable-background:new 0 0 141.7 141.7;" xml:space="preserve">
<style type="text/css">
	.st0{fill:#FEFEFE;}
	.st1{fill:#EC4A84;}
	.st2{fill:#FEFDFD;}
</style>
<title>Asset 21</title>
<g>
	<g id="Layer_1-2">
		<path class="st0" d="M116.4,0L116.4,0z"/>
		<path class="st0" d="M99,1.2c0,0,0.5,0,0.5,0.5c0.1,0.8,0.1,1.7,0,2.5c0,0.7,0,1.5,0,2.2c0,0.9,0,1.8,0,2.7c0,0.9,0,2.9,0,4.3V15
			c0,1,0,2,0,3c0,0.5,0.5,0.9,1,0.9c0.2,0,0.4-0.1,0.6-0.2l2.2-1.6l3.7-2.8c0.5-0.4,0.6-0.4,1.2,0L113,18c0.3,0.4,0.8,0.4,1.2,0.1
			c0,0,0.1-0.1,0.1-0.1c0.1-0.2,0.1-0.4,0-0.6c0.1-1.4,0.1-2.8,0-4.1l0,0c0,0,0-2.3,0-3.4s0-2.9,0-4.3s-0.8-3.2-0.8-4.8l0,0h1.2
			L96.1,1.4h1.2L99,1.2z"/>
		<path class="st1" d="M115,0L115,0z"/>
		<path class="st1" d="M129.6,7.8c-0.1-0.5-0.3-1.1-0.5-1.6c-0.2-1.8-1.1-3.4-2.4-4.5c-0.8-0.9-1.9-1.4-3-1.7h-2.3h-4.1h-0.7l1.2,22
			H95.1l0.9-20.5c0,0-1.5,0-1.5,0C79,1.7,63.3,2.1,47.7,3.3c-6.1,0.5-12.2,1.1-18.3,1.8c-3,0.4-6,0.8-9,1.2c-2.7,0.4-5,0.7-6.8,3
			c-1.1,1.3-1.6,3-1.5,4.7c0,0.9,0,1.6,0,2.7c0,1.1,0,2,0,3.1c0,0.6,0,1.3,0,1.9c0,1.5,0,3,0,4.6s0,2,0,3v1.8c0,1.6,0,3,0,4.6
			s0,2,0,3c0,0.7,0,1.4,0,2c0,1.6,0,3,0,4.6s0,2.4,0,3.6v6.1c0,1.2,0,2.5,0,3.7c0,1.2,0,2.7,0,4.1c0,1.4,0,2.4,0,3.7v6
			c0,1.2,0,2.4,0,3.7v6.1c0,1.2,0,2.5,0,3.7v6c0,1,0,2,0,3s0,1.4,0,2.1c0,0.7,0,3,0,4.5c0,1.5,0,2.1,0,3.1c0,0.7,0,1.4,0,2.1
			c0,1.5,0,3,0,4.5s0,2,0,3v2.4c0,1.6,0,3.1,0,4.7s0,2,0,3c0,0.7,0,1.4,0,2c0,1.6,0,3.1,0,4.8s0,1.9,0,2.9c0,0.5,0,0.9,0,1.4
			c0.9,3.3,3.8,5.7,7.2,5.8h3.1h5h4.8h4.9h3.2h4.9h3.2h5h3.2h4.9h3h5.1h3h5.1h3.1h4.9H89h5h3.2h4.9h4.8h4.8h6c0.7,0.2,1.4,0.2,2.1,0
			c2.2-0.7,3.9-2.4,4.6-4.6c0.4-1,0.5-2.1,0.5-3.1V7.8H129.6z"/>
		<path class="st1" d="M117.6,22.1L116.4,0H115l-1.5,0.4c0,0,0,0.2,0,0.4c0,1.6,0,3,0,4.5s0,2.9,0,4.3s0,2.3,0,3.4s0,0,0,0
			c0.1,1.4,0.1,2.8,0,4.1c0.1,0.2,0.1,0.4,0,0.6c-0.3,0.4-0.8,0.4-1.2,0.1c0,0-0.1-0.1-0.1-0.1l-4.8-3.8c-0.5-0.4-0.6-0.4-1.2,0
			l-3.7,2.8l-2.2,1.6c-0.4,0.3-1,0.3-1.3-0.1c-0.1-0.2-0.2-0.3-0.2-0.6c0-1,0-2,0-3v-1.6c0-1.4,0-2.9,0-4.3s0-1.8,0-2.7
			c0-0.7,0-1.5,0-2.2c0.1-0.8,0.1-1.7,0-2.5c0,0,0-0.5-0.5-0.5h-1.7h-1.2l-1.1,20.9L117.6,22.1z"/>
		<path class="st2" d="M52.8,84.8c2.8,0,5.6,0.1,8.3,0.4c1.1,0.1,2.2,0.3,3.2,0.7h0.5c0.4,0.1,0.7,0.5,0.6,0.9
			c-0.2,1.9-0.2,3.9,0,5.8c0.2,1.4,0.6,2.7,1.2,3.9c0.7,1.3,1.9,2.3,3.4,2.7c1.7,0.4,3.5,0.4,5.2,0c2.2-0.5,3.9-2.3,4.1-4.5
			c0.6-3.1-0.5-6.3-2.8-8.5c-1.7-1.7-3.7-3.2-5.8-4.4c-2.5-1.6-5.1-3-7.8-4.4c-3.3-1.8-6.5-3.9-9.5-6.2c-2.9-2.1-5.3-4.8-7.3-7.8
			c-1.6-2.6-2.6-5.5-3-8.6c-0.7-4.5-0.3-9.2,1.2-13.5c2-5.7,6.2-10.4,11.7-12.9c3-1.4,6.1-2.4,9.4-2.9c3.2-0.5,6.4-0.6,9.7-0.5
			c4.1,0.2,8.1,1,11.9,2.5c4.8,2,8.8,5.5,11.3,10c1.6,3,2.8,6.2,3.4,9.5c0.4,2.6,0.7,5.2,0.7,7.8c0.1,0.2,0.1,0.4,0,0.5
			c-1.1,0.5-2.2,0.8-3.4,1c-2.1,0.4-4.1,0.6-6.2,0.8c-2.8,0.2-5.6,0.2-8.3,0c-0.9-0.1-1.7-0.3-2.5-0.5c-0.2,0-0.4,0-0.6,0
			c-0.1-0.3-0.1-0.5,0-0.8c0.1-1.3,0.1-2.7,0-4.1c-0.3-1.7-1-3.4-2.1-4.8c-0.8-1.6-2.5-2.8-4.3-3c-1.5-0.2-3.1,0-4.5,0.4
			c-2,0.6-3.5,2.2-3.9,4.3c-0.4,2.9,0.7,5.9,3,7.8c1.8,1.6,3.7,3,5.8,4.1c3.4,1.9,6.9,3.7,10.4,5.7c3.5,1.9,6.7,4.2,9.6,6.9
			c4,3.7,6.7,8.5,7.8,13.9c0.5,2.6,0.6,5.2,0.4,7.8c-0.3,4.4-1.9,8.6-4.5,12.1c-2.1,2.7-4.8,4.9-7.8,6.5c-3.6,2-7.4,3.3-11.5,3.8
			c-3.4,0.4-6.9,0.4-10.4,0c-3.4-0.1-6.8-0.7-10.1-1.7c-3.8-1.1-7.2-3.1-10.1-5.8c-2.8-2.6-4.9-5.9-6.1-9.6
			c-0.9-3.3-1.3-6.7-1.2-10.1c0-0.9,0-1.9,0-2.9c-0.1-0.6,0.3-1.1,0.8-1.2c0.1,0,0.2,0,0.3,0c0.8-0.4,1.6-0.6,2.5-0.8
			C48.2,84.8,50.5,84.7,52.8,84.8z"/>
	</g>
</g>
</svg>
