<?xml version="1.0" encoding="utf-8"?>
<!-- Generator: Adobe Illustrator 23.0.1, SVG Export Plug-In . SVG Version: 6.00 Build 0)  -->
<svg version="1.1" id="Layer_1" xmlns="http://www.w3.org/2000/svg" xmlns:xlink="http://www.w3.org/1999/xlink" x="0px" y="0px"
	 viewBox="0 0 141.7 141.7" style="enable-background:new 0 0 141.7 141.7;" xml:space="preserve">
<style type="text/css">
	.st0{fill:#FFD048;}
	.st1{fill:#FFD661;}
	.st2{fill:#E09A26;}
	.st3{fill:#EFB321;}
	.st4{fill:#FAC432;}
	.st5{fill:#FFD14B;}
	.st6{fill:#F3BA25;}
	.st7{fill:#DC9A25;}
	.st8{fill:#9C6087;}
	.st9{fill:#E8A827;}
	.st10{fill:#AB5A26;}
	.st11{fill:#8C5579;}
	.st12{fill:#FFD762;}
	.st13{fill:#D58EB8;}
	.st14{fill:#DDACCF;}
	.st15{fill:#E0B8D6;}
	.st16{fill:#E09C26;}
	.st17{fill:#AD6794;}
	.st18{fill:#F1B624;}
	.st19{fill:#F7C740;}
	.st20{fill:#BE66A7;}
	.st21{fill:#E4A5CA;}
	.st22{fill:#DAA1C8;}
	.st23{fill:#CE63A2;}
	.st24{fill:#944782;}
	.st25{fill:#994987;}
	.st26{fill:#CF8229;}
	.st27{fill:#753860;}
	.st28{fill:#C07028;}
	.st29{fill:#DD88B8;}
	.st30{fill:#753863;}
	.st31{fill:#A5498A;}
	.st32{fill:#D187B6;}
	.st33{fill:#6A3B4F;}
	.st34{fill:#BE6D29;}
	.st35{fill:#F9CB46;}
	.st36{fill:#DBA937;}
	.st37{fill:#964984;}
	.st38{fill:#C0519C;}
	.st39{fill:#834136;}
	.st40{fill:#FFD763;}
	.st41{fill:#F9C941;}
	.st42{fill:#FBC940;}
	.st43{fill:#B66728;}
	.st44{fill:#DCA8CC;}
	.st45{fill:#D28CBC;}
	.st46{fill:#D58A2D;}
	.st47{fill:#FCC938;}
	.st48{fill:#BB60A3;}
	.st49{fill:#C16DAB;}
	.st50{fill:#8D4636;}
	.st51{fill:#58595B;}
</style>
<title>Asset 11</title>
<g>
	<g id="Layer_1-2">
		<path class="st0" d="M32.8,111.3v-4.6c1.5-3.7,5.1-5.5,7.8-8.1c2.2-2.1,4.6-4.1,7-5.9c0.6-0.5,1.2-1.3,2.2-0.8
			c1,1.3,0,2.4-0.6,3.4c-1,1.1-1.9,2.4-2.6,3.7c0.7,0.1,1.5-0.1,2-0.6C54.4,94.9,60,91.2,65.4,87c2.6-1.7,4.2-4.6,4.3-7.7
			c0.2-0.2,0.4-0.3,0.6-0.4c0.5-0.1,1.1,0.1,1.5,0.4c0.2,0.2,0.3,0.4,0.4,0.6c0.3,0.4,0.4,0.9,0.5,1.4c0,2.1-0.9,4.2-2.6,5.5
			c-4.2,5.3-9.4,9.7-15.3,13c-5.1,2.9-10,6.3-14.8,9.6c-1.2,0.8-2.6,0.9-3.6,1.7L32.8,111.3z"/>
		<path class="st1" d="M63.8,111.3h-4.1c-0.9-1.3-0.2-2.3,0.6-3.1c2-2.1,3.8-4.4,5.3-7c1.1-1.5,2.4-2.8,3.9-3.8
			c1.8-0.6,2.7-2.6,4.3-3.1c2.3-0.6,4.7,0.7,5.3,3c0.2,0.7,0.2,1.5,0,2.2c-1,4.4-4.3,8-8.7,9.4C68.2,109.6,66,110.3,63.8,111.3z"/>
		<path class="st2" d="M86.5,73.1c0.6,0,1.1,0.3,1,1c1,2.8-0.9,4.5-2.4,6.4c-0.6,0.8-1.4,1.4-2.1,2.2c-3.3,2.9-6.3,6.1-8.9,9.6
			c-1.8,2.2-3.8,4.1-6,5.8c-4.3,4.3-9.1,7.8-13.6,11.9c-0.8,0.7-1.9,0.7-2.6,1.4H47c-0.5-1.7,0.9-2.2,1.9-2.9
			c3.5-2.2,6.7-4.8,10.1-7.1c3.6-2.6,6.8-5.8,9.4-9.4c1.3-1.9,2.9-3.5,4.3-5.4c0.8-1.1,1.9-1.9,3.2-2.3c2.3-0.6,3.9-2.7,3.8-5.1
			c1.6-2.4,4.3-3.6,6.1-5.9C85.9,72.9,86.5,73,86.5,73.1z"/>
		<path class="st3" d="M80,79.4c1,1.4,0.6,3.4-0.8,4.3c-0.3,0.2-0.6,0.3-1,0.4c-4.6,1.4-6.6,5.3-9.3,8.7c-4.1,4.9-8.9,9.3-14.1,13
			c-2.8,1.5-5.4,3.4-7.7,5.6h-6.6c-0.8-1.4,0.2-2,1.1-2.7c1.6-1.1,3.2-2.1,5-3c1.9-1,3.8-1.9,5.7-2.8c6-2.7,11.1-6.9,14.8-12.3
			c1.5-2.1,3.4-3.7,4.8-5.9c0.8-0.9,0.9-2.3,0.2-3.3l-0.5-1.3c0.8-0.3,1.7-0.3,2.5,0c0.6,0.4,1.3,0.6,2,0.5
			C77.4,80.8,78.4,78.9,80,79.4z"/>
		<path class="st4" d="M71.9,81.3c1,0.4,1.4,1.6,1,2.6c-0.1,0.2-0.3,0.5-0.4,0.6c-5.1,7.2-10,14.7-18.5,18.6
			c-3.8,1.6-7.5,3.5-11,5.7c-1,0.6-2.4,1-2.6,2.6h-4.1c0.5-0.8,1.2-1.4,2-1.9c6.9-4.6,13.9-9.3,21-13.6c4.4-3.1,8.3-6.9,11.5-11.2
			C71.7,83.7,72,82.5,71.9,81.3z"/>
		<path class="st5" d="M63.8,111.3c1.3-2.2,3.6-2.4,5.7-2.9c4.2-1,7.5-4.2,8.7-8.3c1.2-3.3-0.6-5.4-4.1-5.1
			c-0.2-0.2-0.3-0.5-0.3-0.7c0.1-0.4,0.4-0.7,0.7-0.9c0.8-0.2,1.6-0.2,2.3,0c1,0,1.4,1,2.1,1.6l0.9,0.7c1.3,0.8,2.9,0.3,4.1,1.3
			c0.4,0.6,0.6,1.3,0.4,1.9c-0.8,4.8-3.2,9.2-6.7,12.4L63.8,111.3z"/>
		<path class="st6" d="M77.5,111.3c1.9-3.2,3.6-6.5,5-9.9c0.5-1.4,0.9-2.9,1.1-4.3c-0.2-0.2-0.3-0.5-0.3-0.7
			c0.3-0.7,0.9-1.3,1.6-1.5c1.3-0.3,2.5-0.9,3.5-1.8c0.6-0.7,1.5-1,2.4-0.8c1.4,2.3,1.4,5.1,0,7.4c-2.6,4.3-5.8,8.2-9.6,11.6
			L77.5,111.3z"/>
		<path class="st7" d="M81.1,111.3c1.3-2.4,2.9-4.6,4.8-6.5c3.6-3,5.5-7.7,4.9-12.4c0-0.5,0-0.8,0.6-1s1.5-2.5,2.6-1.9
			s0.8,2.4,0.6,3.8c-0.6,3.5-2.1,6.7-4.3,9.4c-2.3,3-4.8,5.8-7.3,8.7L81.1,111.3z"/>
		<path class="st8" d="M110.5,45.7h-2c-1.6-0.7-2-1.4-0.9-3.2c1.3-3,2.2-6.1,2.7-9.3c0.3-0.9,0-1.9,0.8-2.6h2.6v6.5
			c-0.5,1.4-0.9,2.8-1,4.3C112.4,43,111.6,44.5,110.5,45.7z"/>
		<path class="st9" d="M74.4,94l-0.5,0.5c-1.3,1.3-2.7,2.5-4.1,3.6c-1.3,1-2.5,2.2-3.5,3.5c-2.6,2.1-4.1,5-6.7,7.1
			c-1.2,1-2.5,1.9-3.9,2.6h-2c0-1.8,1.8-2.3,2.8-3.2c4-3.4,7.9-6.8,11.7-10.3c2.3-2.1,4.6-4.3,6.7-6.6c0.6-0.7,1.3-1.6,2.2-0.3
			c0.2,0.5,0.2,1,0,1.5C76.4,93.5,75.2,93.4,74.4,94z"/>
		<path class="st5" d="M55.6,111.3c3.2-3.6,6.8-6.8,10.7-9.7c-1.6,2.6-3.4,5-5.4,7.2c-0.7,0.7-1.1,1.5-1.2,2.5H55.6z"/>
		<path class="st10" d="M68.4,98.1l-14.8,13.2h-1.7l11-9.6l4.8-4.3C68.3,97.5,68.5,97.6,68.4,98.1z"/>
		<path class="st11" d="M110.5,45.7c0.3-3.1,1.4-6,3.1-8.7v8.2C112.7,45.6,111.6,45.8,110.5,45.7z"/>
		<path class="st12" d="M42.4,77.9c1.2-1.3,2.5-2.4,3.9-3.3c2-1.4,3.8-3.4,6.6-3c0.8,0.1,1.4,0.7,1.7,1.4c0.2,0.5,0.4,0.9,0.6,1.3
			c0,0.2,0,0.4,0.2,0.7c0.2,0.5,0.2,1,0,1.5C55,79.9,52,81.2,49.8,83c-4.6,3.5-9.4,6.7-14.4,9.7c-1.9,1.3-2.3,0.9-2.5-1.4
			c-0.2-2.6,0.9-5.1,2.9-6.7C38.2,82.5,40.4,80.3,42.4,77.9z"/>
		<path class="st13" d="M76.6,92.4v-1.5c0-0.3,0-0.7,0.3-1c4.2-4.1,8.7-7.9,13.4-11.4c2.2-0.6,3.7-2.6,3.8-4.8
			c0-0.7,0.3-1.3,0.7-1.8c4.3-4.3,4.3-10.3,5.8-15.8c0.9-3.8,1.6-7.5,2.5-11.3c0.9-1.5,0.7-3.9,3.2-4c0.6,0.7,0.7,1.7,0.2,2.6
			c-0.7,1.6-1,3.4-0.7,5.1c-1.2,6.4-2.7,12.8-4.8,19c-1.1,3.9-2.9,7.7-5.1,11.1c-0.7,1.2-1.4,2.5-2.1,3.7c-0.4,0.4-0.8,0.6-1.2,0.9
			c-1.1,0.5-2.3,0.5-3.4,0c-2.8,1.7-5.3,3.8-7.6,6.2c-1.2,1.5-2.7,2.7-4.3,3.7C77,92.9,76.7,92.7,76.6,92.4z"/>
		<path class="st14" d="M71.3,79.7l-0.6-0.5c-1.9-0.9-1.8-2.4-1.5-4.1c0.2-1.4,1.3-2.5,2.6-2.9c4-3.7,8.4-7,13-10
			c1.2-0.8,2.5-1.4,3.9-1.6c1-0.3,2.1,0.2,2.5,1.2c-0.4,2.2-2.2,3.3-3.6,4.7c-3.8,3.7-7.7,7.3-11.7,10.8
			C74.6,78.5,73.5,80.3,71.3,79.7z"/>
		<path class="st15" d="M54,73.6l-0.9-1.6c-0.4-0.3-0.7-0.8-0.6-1.3c0.8-1.7,2.1-3.1,3.7-4c3.8-3.6,8-6.9,12.5-9.7
			c1.4-0.7,2.9-1.8,4.8-0.7c0.6,1.1-0.3,1.8-1,2.3C66.8,63.2,62,68.7,56.2,73.3C55.6,73.9,54.9,74.4,54,73.6z"/>
		<path class="st16" d="M32.9,105.2v-4c4.9-4,10.3-7.4,15-11.5c2.9-2.4,5.6-5.2,7.9-8.2c0.7-0.8,1.6-1.5,2.6-1.9
			c2.7-1.4,5-3.6,6.5-6.3c1-1.8,2.6-3.1,4.5-3.9c1.9,1.3,1.2,2.8,0.3,4.3c-1.3,1.9-2.9,3.6-4.8,5l-10.1,8.7
			c-6.6,5.6-13.5,10.9-19.8,16.8C34.4,104.8,33.8,105.5,32.9,105.2z"/>
		<path class="st17" d="M100.3,67.6c1.3-4.9,2.4-9.8,3.8-14.7c0.4-1.6,0-3.2,0.9-4.7c1.3-5.9,1.9-11.9,3.5-17.7h2.6
			c0.4,0.6,0.6,1.4,0.4,2.2c-0.8,3.3-1.6,6.6-2.5,9.8c-0.3,1-2.4,1.8-0.5,3.2c-1.1,0.2-1,1.2-1.2,2c-1.6,5.9-3.1,11.8-4.7,17.6
			c-0.1,1-0.6,2-1.4,2.7C100.7,68.5,100.4,68.3,100.3,67.6z"/>
		<path class="st18" d="M65.2,73.6c-1.1,2.6-3.1,4.8-5.6,6.1c-1.6,1-3.1,2.2-4.3,3.5C49,89.9,42.1,95.8,34.6,101
			c-0.5,0.4-1.3,0.4-1.8,0v-5.5c0.2-0.2,0.5-0.2,0.6,0c0.7,0.8,1.9,0.8,2.7,0c0,0,0,0,0,0c6.9-4.1,13.2-9.2,18.6-15.2
			c0.5-0.7,1.1-1.3,1.9-1.6c1.8-0.5,3.3-1.6,4.3-3.1c0-0.1,0-0.2,0-0.3l0.3-0.3C62.6,74.4,63.4,73,65.2,73.6z"/>
		<path class="st19" d="M33.3,95.5h-0.4c0-0.1,0-0.2,0-0.3c-0.4-9.9,0-10.6,9.6-17.3c-1.9,3-4.1,5.7-6.7,8.2c-0.7,0.7-1.4,1.5-2,2.2
			c-0.8,1.2-0.8,2.7,0,3.9c0.9,1.1,1.9-0.4,2.7-1c4.9-3.5,10.4-6.3,15.1-10.3c1.7-1.2,3-2.9,3.8-4.8c1.4,1,1.5,1.5,0.5,3.1
			c-1.7,2.3-3.8,4.4-6.1,6.1c-5,3.5-10.2,6.8-15.5,9.8C34,95.4,33.6,95.5,33.3,95.5z"/>
		<path class="st20" d="M71.3,79.7c3.5-2.6,6.9-5.5,10-8.7c3.5-3,6.7-6.2,10-9.3c0.5,0.6,0.5,1.5,0,2.2c-3.5,5.5-7.9,10.4-13,14.5
			c-1.3,1.1-2.3,2.9-4.3,2.3c-0.9,0-1.5-0.6-2.2-0.8C71.6,79.8,71.4,79.7,71.3,79.7z"/>
		<path class="st21" d="M106,40.6c-1.1,1.3-0.6,3.7-3,4.1l-1-0.6c-1.1-2.3,0-4.6,0.3-6.9c0.2-1.7,0.6-3.5,1-5.2
			c0-0.8,0.5-1.4,1.3-1.6h3c0.5,0,1,0.6,0.8,1.1C108,34.6,107.2,37.7,106,40.6z"/>
		<path class="st22" d="M54,73.6c1.7-0.6,3.2-1.7,4.3-3.2c4.3-4.3,8.7-8.7,13.6-12.4c0.6-0.5,1.1-1.1,1.6-1.7c0.6,0,1,0.5,1,1v0.4
			c-3.5,4.2-7.3,8.1-11.4,11.6c-1.6,1.6-3.4,3-5.2,4.3c-0.9,0.6-1.8,2-3.2,0.8L54,73.6z"/>
		<path class="st23" d="M100.4,43.3c-2.1-1.1-3.1-3.5-2.4-5.8c0.3-1.2,0.6-2.5,0.7-3.7c0-3,1.6-3.7,4.3-3.1c0.2,2.9-0.2,5.9-1.1,8.7
			C101.6,40.5,102.3,42.3,100.4,43.3z"/>
		<path class="st24" d="M74.5,57.3c0.6,1,0.6,2.2,0,3.1c-1.8,4-4.6,7.4-8,10.2c-2.3,2.1-4.8,4-7.4,5.7c-0.6,0.2-1.3,0.1-1.9-0.3
			c-0.9-1.6,0.5-2.1,1.3-2.8c4.8-3.8,9.3-8,13.3-12.6c1-0.9,1.8-2,2.4-3.2C74.3,57.4,74.4,57.3,74.5,57.3z"/>
		<path class="st25" d="M73.5,80.8c2.3-1.1,4.3-2.6,6-4.5c3.9-3.4,7.5-7.2,10.6-11.3c0.3-0.4,0.7-0.7,1.2-0.9v1
			c-2.5,5.1-6.1,9.5-10.6,13c-1.4,1.4-3.1,2.6-5,3.4C75,81.6,74.1,81.4,73.5,80.8z"/>
		<path class="st26" d="M54.1,86.9c4.6-4.7,10.2-8.2,14.5-13c1.1-1.1,1.4-2.7,0.8-4.1c-0.5-1,0-1.3,0.9-1.5c0.9-0.2,0.9,1.5,1,2.4
			c0.1,0.9-0.4,1.3,0.5,1.6l-2,2.7c-1.2,2.1-3.8,2.8-5,4.9c-2.6,2.4-5.4,4.6-8,6.9c-0.5,0.6-1.3,0.9-2,0.9
			C54.4,87.7,54.1,87.3,54.1,86.9z"/>
		<path class="st27" d="M75.7,81.3c5-3.8,9.5-8.2,13.3-13.2c0.7-1,1.5-2,2.2-3.1c-0.8,3.1-2.5,5.9-4.7,8.1c-2,2.4-4.2,4.5-6.7,6.3
			C78.7,80.3,77.5,81.5,75.7,81.3z"/>
		<path class="st28" d="M54.1,86.9l0.5,0.4c-0.5,2.5-2.5,4.3-5,4.6l-16.7,14.8v-1.6l14.8-12.6L54.1,86.9z"/>
		<path class="st29" d="M100.4,43.3c0.5-4.4,1.4-8.7,2.5-13h1.6c-1.3,4.3-1.6,9-2.5,13.5C101.4,43.9,100.9,43.7,100.4,43.3z"/>
		<path class="st30" d="M59.2,75.6c1.4-1.5,3-2.7,4.7-3.8c4-3.3,7.6-7,10.6-11.2c0,1.1-0.4,2.2-1.1,3c-2.3,3.9-5.4,7.2-9.1,9.8
			c-1,0.6-1.9,1.4-2.6,2.3l0,0C60.9,76.3,60,76.6,59.2,75.6z"/>
		<path class="st31" d="M90.2,78.6c-0.6,1.6-2.2,2.3-3.4,3.2c-3.5,2.7-6.1,6.2-9.8,8.7c-1-1.1,0-1.8,0.7-2.5c2-2.1,4.1-4,6-6.1
			c0.9-0.7,1.6-1.8,2.9-1.3L90.2,78.6z"/>
		<path class="st32" d="M106,40.6c0.5-2.7,1-5.4,1.6-8.1c0.3-0.6,0.3-1.3,0-1.9h1c1,1.9-0.3,3.5-0.5,5.3c-0.8,4.2-1.8,8.3-3,12.4
			C104.1,45.5,106.1,43.3,106,40.6z"/>
		<path class="st33" d="M61.7,75.6c0.1-0.8,0.6-1.6,1.3-2c4-2.8,7.6-6.2,10.5-10.2c-0.3,2.1-2.1,3.1-3.1,4.7l-0.9,1.5l-4.3,4
			L61.7,75.6z"/>
		<path class="st34" d="M86.5,80.7c-0.6,0.7-1.8,0.8-2.3,1.7c-0.6,0.2-1.2,0.5-1.8,0c1.2-1.5,2.3-3,3.7-4.3c1-1,1.6-2.4,1.4-3.8
			C89,76.6,87.6,78.6,86.5,80.7z"/>
		<path class="st35" d="M53.1,70.9v1.2c-2.4,0.4-4.7,1.3-6.8,2.6c1.9-1.9,3.9-3.6,6.1-5.1C53.6,69.5,53.4,70.2,53.1,70.9z"/>
		<path class="st36" d="M53.1,70.9c0-0.5-0.3-1-0.7-1.3c1.1-1.1,1.9-2.6,3.7-2.8C54.9,67.9,53.9,69.3,53.1,70.9z"/>
		<path class="st37" d="M92.3,82.3l0.9-0.6c2.5-2.4,4.5-5.4,5.8-8.7c0.8-1.5,0.9-3.5,2.5-4.3c0.4,2.2,0,4.4-1.3,6.2
			c-1.2,2.3-2.2,4.7-3.1,7.2c-1.4,3.3-3.6,6.3-6.2,8.8c-1.4,2-3.4,3.5-5.7,4.3l-1.3,1c0,0.4-0.6,0.3-1,0.3c-1.2-1.4,0-2.3,0.9-3.2
			c2.1-2.3,4.3-4.3,6.6-6.7c1.1-1.1,2.6-2,1.6-4C91.7,82.7,92.1,82.3,92.3,82.3z"/>
		<path class="st38" d="M101.5,68.6c-0.9,3.9-2.6,7.6-4.9,10.9c-0.7,1.3-1.9,2.1-3.4,2.3c2.3-4.8,5.1-9.2,7.1-14.1
			c0.2,0.3,0.6,0.5,1,0.4L101.5,68.6z"/>
		<path class="st39" d="M84.9,95.5l5.9-4.6l0.6,0.4l-0.6,1C88.6,93.3,87.5,95.7,84.9,95.5z"/>
		<path class="st40" d="M49.6,92l5-4.6l9.6-8.1c0.8-0.4,1.5-0.9,2.2-1.5c2-1.2,2.8-0.8,3.4,1.6c1.1,2.5,0.2,5.4-2.1,6.9
			c-6.1,5-12.7,9.5-19.6,13.4c-0.5,0.3-1,0.6-1.6,0.7c-0.6,0.3-1.2,0.2-1.7-0.2c-0.5-0.6,0-1.1,0.3-1.6c1.1-1.5,2.2-3,3.4-4.3
			C49.2,93.6,49.6,92.8,49.6,92z"/>
		<path class="st41" d="M69.9,79.3c-0.6-1.5-1.5-1.8-2.9-1.1c-0.8,0.5-1.8,0.9-2.7,1c1.5-1.9,3.4-3.4,5.6-4.3
			c-0.2,1.5,0.1,3,0.8,4.3L69.9,79.3z"/>
		<path class="st42" d="M69.9,98.1c1-1.5,2.4-2.8,4.1-3.6v0.8C72.5,95.9,71.7,97.7,69.9,98.1z"/>
		<path class="st43" d="M82.6,82.3h1.8c-2,1.9-4,3.9-5.9,5.8c-0.8,0.5-1.3,1.4-1.4,2.3L76.5,91c-1.6,0-2.2,1.6-3.2,2.4
			c-1.8,1.4-3.3,3.1-5,4.6l-0.5-0.5C73.5,93,76.9,86.6,82.6,82.3z"/>
		<path class="st44" d="M77,92.6c3.6-4.4,7.9-8.2,12.7-11.2c0.4,0.6,0,1.4,0.3,2c0.5,0.8,0.3,1.9-0.4,2.5c-3.4,3.2-6.8,6.5-10.4,9.6
			c-0.2,0.1-0.5,0.1-0.7,0l-1.4-1.5C76.7,93.5,76.7,93,77,92.6z"/>
		<path class="st45" d="M78.5,95.5c2.3-2.6,4.7-5,7.3-7.3c1.5-1.3,4.1-2,3.5-4.9c1.8-0.7,2.1,0,1.9,1.7c-0.2,0.7-0.6,1.3-1.1,1.7
			c-3.2,3.4-6.6,6.5-10.3,9.4c-0.2,0.2-0.5,0.2-0.7,0L78.5,95.5z"/>
		<path class="st42" d="M77,92.6V94h-2.6c0.4-0.8,1.2-1.4,2.2-1.6L77,92.6z"/>
		<path class="st46" d="M79,96.1h0.5c0.9-0.6,2.1-0.4,2.7,0.5c0,0,0.1,0.1,0.1,0.1h1.3v0.6C82,97.6,80.3,97.2,79,96.1z"/>
		<path class="st47" d="M33.3,95.5c1.3-1.9,3.1-3.4,5.3-4.3c5-2.7,9.6-6,13.8-9.7c1.5-1.4,3.9-2.6,2.8-5.5l-0.4-1.2
			c0.7,0,1.5-0.2,2.1,0.4c1.4,1.5,3.3,0,4.8,0.7c-1.3,1.6-2.3,3.4-4.7,3.6c-1.2,0-1.7,1.6-2.4,2.5c-5.6,5.9-11.9,10.9-18.9,15
			C33.4,98.5,33.1,97.3,33.3,95.5z"/>
		<path class="st48" d="M56.2,75.7L54.6,75c0-0.1,0-0.3,0-0.4c3.7-2,7-4.6,9.9-7.7c3.4-3,6.5-6.3,9.8-9.5c0.3,1.6-0.9,2.5-1.7,3.5
			C68,66.5,62.8,71.4,57,75.6C56.9,75.9,56.5,75.9,56.2,75.7C56.3,75.8,56.3,75.7,56.2,75.7z"/>
		<path class="st49" d="M82.2,96.5c-1,0.1-2-0.1-2.8-0.6c0.8-1.8,2.2-3.3,3.8-4.3c2.3-2,4.5-4,6.5-6.2c1-1,1.2-1.9-0.6-2.1l0.4-2
			c0.6,0.9,1.4,1.6,2.6,1v0.5c3.5,0.7,1,2.2,0.3,3.1c-2.6,2.9-5.5,5.5-8.2,8.3C83.4,94.7,82.7,95.5,82.2,96.5z"/>
		<path class="st50" d="M56.2,75.7H57h4.6v0.4C59.9,76.3,58.1,77.1,56.2,75.7z"/>
		<path class="st51" d="M0,87.5L24.2,75v3.6L3.8,88.8l0,0l20.4,10.3v3.6L0,90.3V87.5z"/>
		<path class="st51" d="M141.7,90.4l-24.2,12.4v-3.6l20.6-10.3l0,0l-20.6-10.3v-3.6l24.2,12.4V90.4z"/>
	</g>
</g>
</svg>
