<?xml version="1.0" encoding="utf-8"?>
<!-- Generator: Adobe Illustrator 23.0.1, SVG Export Plug-In . SVG Version: 6.00 Build 0)  -->
<svg version="1.1" id="Layer_1" xmlns="http://www.w3.org/2000/svg" xmlns:xlink="http://www.w3.org/1999/xlink" x="0px" y="0px"
	 viewBox="0 0 500 500" style="enable-background:new 0 0 500 500;" xml:space="preserve">
<g>
	<g>
		<path d="M250,453.26c-112.36,0-203.76-91.41-203.76-203.76S137.64,45.74,250,45.74s203.76,91.41,203.76,203.76
			S362.36,453.26,250,453.26z M250,56.75c-106.28,0-192.75,86.47-192.75,192.75S143.72,442.25,250,442.25
			s192.75-86.47,192.75-192.75S356.28,56.75,250,56.75z"/>
	</g>
	<g>
		<rect x="54.5" y="243.99" width="396.52" height="11.01"/>
	</g>
	<g>
		<path d="M250,453.26c-42.93,0-66.08-104.99-66.08-203.76S207.07,45.74,250,45.74c42.92,0,66.08,104.99,66.08,203.76
			S292.92,453.26,250,453.26z M250,56.75c-26.05,0-55.07,79.16-55.07,192.75S223.95,442.25,250,442.25s55.07-79.16,55.07-192.75
			S276.05,56.75,250,56.75z"/>
	</g>
	<g>
		<path d="M250,166.89c-78.91,0-139.13-21.28-161.37-30.43l4.2-10.19c21.62,8.9,80.22,29.6,157.17,29.6
			c76.96,0,135.55-20.7,157.17-29.6l4.2,10.19C389.14,145.61,328.91,166.89,250,166.89z"/>
	</g>
	<g>
		<path d="M92.83,372.72l-4.2-10.19c22.23-9.14,82.45-30.43,161.37-30.43s139.14,21.28,161.37,30.43l-4.2,10.19
			c-21.62-8.9-80.22-29.6-157.17-29.6S114.45,363.82,92.83,372.72z"/>
	</g>
</g>
</svg>
