<?xml version="1.0" encoding="utf-8"?>
<!-- Generator: Adobe Illustrator 23.0.1, SVG Export Plug-In . SVG Version: 6.00 Build 0)  -->
<svg version="1.1" id="Layer_1" xmlns="http://www.w3.org/2000/svg" xmlns:xlink="http://www.w3.org/1999/xlink" x="0px" y="0px"
	 viewBox="0 0 500 500" style="enable-background:new 0 0 500 500;" xml:space="preserve">
<style type="text/css">
	.st0{fill:#4D4D4D;}
	.st1{fill:#E63247;}
</style>
<g>
	<g>
		<path class="st0" d="M75.41,419.79c-18.55,0-33.23-3.89-44.09-11.69c-10.85-7.81-18.58-18.88-23.21-33.23
			c-4.65-14.35-6.96-31.04-6.96-50.02v-91.9c0-19.66,2.37-36.62,7.12-50.86s13.06-25.2,24.92-32.89
			c11.88-7.68,27.98-11.53,48.33-11.53c19.67,0,35.22,3.28,46.63,9.84c11.42,6.56,19.6,15.83,24.58,27.81
			c4.97,11.99,7.46,26.23,7.46,42.73v15.93h-54.6v-19.33c0-7.24-0.45-13.62-1.35-19.16c-0.92-5.54-3.01-9.89-6.29-13.05
			c-3.28-3.17-8.53-4.75-15.77-4.75c-7.46,0-12.88,1.93-16.27,5.76c-3.39,3.85-5.54,8.77-6.44,14.75
			c-0.9,5.99-1.36,12.38-1.36,19.16v121.75c0,7.69,0.69,14.58,2.04,20.67c1.36,6.11,3.9,10.86,7.63,14.25
			c3.73,3.39,9.1,5.08,16.11,5.08c6.99,0,12.42-1.8,16.27-5.42c3.83-3.61,6.49-8.53,7.96-14.75c1.47-6.22,2.21-13.28,2.21-21.19
			v-29.16H83.55v-33.91h77.31v141.07h-36.62l-3.39-24.75c-3.63,8.36-9.05,15.25-16.29,20.67C97.33,417.08,87.62,419.79,75.41,419.79
			z"/>
		<path class="st0" d="M221.56,415.73V182.76h-42.38v-41.71h140.38v41.71h-41.71v232.97H221.56z"/>
	</g>
</g>
<path class="st1" d="M366.06,415.72V141.05h59.67c19.22,0,34.2,3.34,44.94,10c10.73,6.68,18.31,16.11,22.71,28.32
	c4.42,12.21,6.61,26.34,6.61,42.38v109.19c0,16.96-2.19,31.82-6.61,44.6c-4.4,12.77-11.81,22.67-22.21,29.67
	c-10.4,7-24.75,10.51-43.06,10.51H366.06z M391.83,396.39h34.59c14.46,0,25.1-3,31.87-8.99c6.79-5.98,11.07-14.24,12.88-24.75
	c1.81-10.52,2.71-22.44,2.71-35.78v-102.4c0-13.79-1.17-25.38-3.56-34.76c-2.37-9.38-7.01-16.5-13.9-21.36
	c-6.89-4.86-17.24-7.29-31.02-7.29h-33.58V396.39z"/>
<path class="st1" d="M457.96,120.08c-7.7,0-14.58-1.92-20.68-5.78c-6.1-3.85-11.79-7.7-17.08-11.54
	c-5.29-3.85-10.83-5.77-16.59-5.77c-5.15,0-9.07,1.61-11.79,4.8c-2.74,3.21-4.09,8.03-4.09,14.43h-21.66
	c0-5.44,0.88-11.46,2.65-18.04c1.76-6.57,5.05-12.27,9.88-17.08c4.8-4.82,11.69-7.22,20.68-7.22c7.7,0,14.58,1.92,20.68,5.77
	c6.1,3.85,11.86,7.7,17.33,11.56c5.44,3.85,11.08,5.77,16.84,5.77c5.47,0,9.46-1.61,12.03-4.82c2.57-3.2,3.85-8.66,3.85-16.36h21.17
	c0,5.77-0.81,12.19-2.4,19.25c-1.62,7.06-4.73,12.99-9.39,17.8C474.72,117.67,467.59,120.08,457.96,120.08z"/>
</svg>
