<?xml version="1.0" encoding="utf-8"?>
<!-- Generator: Adobe Illustrator 23.0.1, SVG Export Plug-In . SVG Version: 6.00 Build 0)  -->
<svg version="1.1" id="Layer_1" xmlns="http://www.w3.org/2000/svg" xmlns:xlink="http://www.w3.org/1999/xlink" x="0px" y="0px"
	 viewBox="0 0 489 358.06" style="enable-background:new 0 0 489 358.06;" xml:space="preserve">
<style type="text/css">
	.st0{fill:#4D4D4D;}
	.st1{fill:#E63247;}
</style>
<g>
	<g>
		<g>
			<path class="st0" d="M72.79,339.06c-18.17,0-32.57-3.82-43.21-11.47c-10.64-7.64-18.23-18.5-22.77-32.57
				C2.27,280.95,0,264.61,0,246v-90.08c0-19.28,2.33-35.9,6.98-49.86c4.65-13.96,12.8-24.71,24.43-32.24
				c11.63-7.53,27.42-11.3,47.37-11.3c19.28,0,34.51,3.22,45.7,9.64c11.19,6.43,19.22,15.51,24.1,27.26
				c4.87,11.75,7.31,25.71,7.31,41.88v15.62h-53.51v-18.95c0-7.09-0.45-13.35-1.33-18.78c-0.89-5.43-2.94-9.69-6.15-12.8
				c-3.22-3.1-8.37-4.65-15.46-4.65c-7.31,0-12.63,1.89-15.95,5.65c-3.32,3.77-5.43,8.59-6.32,14.46
				c-0.89,5.87-1.33,12.13-1.33,18.78v119.33c0,7.54,0.66,14.29,1.99,20.28c1.33,5.98,3.82,10.64,7.48,13.96
				c3.66,3.32,8.92,4.99,15.79,4.99c6.87,0,12.18-1.77,15.95-5.32c3.77-3.54,6.37-8.36,7.81-14.46c1.44-6.09,2.16-13.02,2.16-20.77
				v-28.59H80.77V196.8h75.78v138.27h-35.9l-3.32-24.26c-3.55,8.2-8.87,14.96-15.95,20.28C94.28,336.4,84.76,339.06,72.79,339.06z"
				/>
			<path class="st0" d="M216.05,335.08V106.72H174.5V65.84h137.61v40.88h-40.88v228.35H216.05z"/>
		</g>
	</g>
	<path class="st1" d="M357.71,335.07V65.84h58.49c18.84,0,33.52,3.28,44.05,9.8c10.51,6.54,17.95,15.8,22.26,27.76
		c4.33,11.97,6.48,25.82,6.48,41.55v107.03c0,16.63-2.15,31.19-6.48,43.71c-4.32,12.52-11.58,22.22-21.77,29.09
		c-10.19,6.87-24.26,10.3-42.21,10.3H357.71z M382.97,316.13h33.91c14.17,0,24.6-2.94,31.24-8.81c6.65-5.87,10.85-13.96,12.63-24.26
		c1.78-10.31,2.66-21.99,2.66-35.07V147.61c0-13.52-1.15-24.88-3.49-34.07c-2.32-9.19-6.87-16.18-13.63-20.94
		c-6.76-4.77-16.9-7.14-30.41-7.14h-32.91V316.13z"/>
	<path class="st1" d="M447.79,45.28c-7.54,0-14.29-1.89-20.27-5.67c-5.98-3.77-11.55-7.54-16.74-11.31
		c-5.19-3.77-10.62-5.66-16.26-5.66c-5.04,0-8.89,1.57-11.55,4.71c-2.69,3.15-4.01,7.87-4.01,14.15h-21.24
		c0-5.33,0.86-11.23,2.59-17.68c1.73-6.44,4.95-12.02,9.68-16.74C374.69,2.35,381.44,0,390.26,0c7.54,0,14.29,1.89,20.27,5.66
		s11.63,7.54,16.98,11.33c5.33,3.77,10.86,5.66,16.5,5.66c5.36,0,9.27-1.57,11.79-4.72c2.52-3.13,3.77-8.49,3.77-16.03h20.76
		c0,5.66-0.79,11.95-2.35,18.87c-1.59,6.92-4.64,12.73-9.2,17.45C464.22,42.92,457.23,45.28,447.79,45.28z"/>
</g>
</svg>
