<?xml version="1.0" encoding="utf-8"?>
<!-- Generator: Adobe Illustrator 23.0.1, SVG Export Plug-In . SVG Version: 6.00 Build 0)  -->
<svg version="1.1" id="Layer_1" xmlns="http://www.w3.org/2000/svg" xmlns:xlink="http://www.w3.org/1999/xlink" x="0px" y="0px"
	 viewBox="0 0 500 347" style="enable-background:new 0 0 500 347;" xml:space="preserve">
<style type="text/css">
	.st0{fill:#B2B2B2;}
	.st1{fill:#E63247;}
</style>
<g>
	<g>
		<g>
			<path class="st0" d="M74.43,346.85c-18.58,0-33.31-3.91-44.18-11.73c-10.88-7.82-18.64-18.92-23.28-33.31
				C2.32,287.43,0,270.72,0,251.68v-92.11c0-19.71,2.38-36.71,7.14-50.98s13.09-25.26,24.98-32.97c11.9-7.7,28.04-11.56,48.43-11.56
				c19.71,0,35.29,3.29,46.73,9.86c11.44,6.57,19.66,15.86,24.64,27.87c4.98,12.01,7.48,26.29,7.48,42.83v15.97h-54.72v-19.37
				c0-7.25-0.46-13.65-1.36-19.2c-0.91-5.55-3.01-9.91-6.29-13.09c-3.29-3.17-8.56-4.76-15.8-4.76c-7.48,0-12.92,1.93-16.31,5.78
				c-3.4,3.86-5.55,8.78-6.46,14.79c-0.91,6.01-1.36,12.41-1.36,19.2v122.02c0,7.71,0.68,14.61,2.04,20.73
				c1.36,6.12,3.91,10.88,7.65,14.28c3.74,3.4,9.12,5.1,16.14,5.1c7.02,0,12.46-1.81,16.31-5.44c3.85-3.62,6.51-8.55,7.99-14.78
				c1.47-6.23,2.21-13.31,2.21-21.24v-29.23H82.59v-33.99h77.49v141.39h-36.71l-3.4-24.81c-3.63,8.39-9.07,15.29-16.31,20.73
				C96.41,344.13,86.67,346.85,74.43,346.85z"/>
			<path class="st0" d="M220.92,342.77v-233.5h-42.49V67.46h140.71v41.81h-41.81v233.5H220.92z"/>
		</g>
	</g>
	<path class="st1" d="M365.75,342.77V67.46h59.81c19.27,0,34.28,3.35,45.04,10.02c10.75,6.69,18.35,16.15,22.76,28.38
		c4.43,12.24,6.63,26.4,6.63,42.48v109.44c0,17-2.2,31.9-6.63,44.7c-4.41,12.8-11.84,22.72-22.26,29.74
		c-10.42,7.02-24.81,10.53-43.16,10.53H365.75z M391.58,323.4h34.68c14.49,0,25.15-3,31.94-9.01c6.8-6,11.1-14.27,12.91-24.81
		c1.82-10.54,2.72-22.49,2.72-35.86V151.08c0-13.82-1.18-25.44-3.57-34.84c-2.37-9.4-7.03-16.54-13.94-21.41s-17.28-7.31-31.09-7.31
		h-33.65V323.4z"/>
	<path class="st1" d="M457.86,46.45c-7.71,0-14.62-1.93-20.73-5.8c-6.12-3.86-11.82-7.71-17.12-11.57s-10.86-5.78-16.63-5.78
		c-5.16,0-9.09,1.61-11.82,4.81c-2.75,3.22-4.1,8.04-4.1,14.47h-21.71c0-5.45,0.88-11.48,2.65-18.08c1.77-6.58,5.06-12.29,9.9-17.12
		c4.81-4.83,11.72-7.23,20.73-7.23c7.71,0,14.62,1.93,20.73,5.78s11.89,7.71,17.37,11.58c5.45,3.86,11.1,5.78,16.88,5.78
		c5.48,0,9.48-1.61,12.06-4.83c2.58-3.21,3.86-8.68,3.86-16.4h21.22c0,5.78-0.81,12.22-2.41,19.3c-1.62,7.07-4.74,13.02-9.41,17.85
		C474.67,44.03,467.52,46.45,457.86,46.45z"/>
</g>
</svg>
